<svg xmlns="http://www.w3.org/2000/svg" viewBox="0 0 512 512">
  <defs>
    <linearGradient id="g" x1="0" y1="1" x2="1" y2="0">
      <stop stop-color="#101522"/>
      <stop offset="1" stop-color="#314b73"/>
    </linearGradient>
  </defs>
  <rect width="512" height="512" rx="112" fill="url(#g)"/>
  <path d="M80 365h160c18 0 28-13 21-29-7-15-25-25-43-25H80zM270 288h162c18 0 28-13 21-29-7-15-25-25-43-25H270z" fill="#91f2bd"/>
  <path d="M256 102c-62 0-112 50-112 112 0 19 5 37 13 52l99 145 99-145c8-15 13-33 13-52 0-62-50-112-112-112zm0 64a48 48 0 1 1 0 96 48 48 0 0 1 0-96z" fill="#ff846d"/>
</svg>
